<svg version="1" xmlns="http://www.w3.org/2000/svg" width="653.333" height="653.333" viewBox="0 0 490.000000 490.000000"><path d="M369 90c-28.9 6.1-51.2 25.3-57.5 49.5-1.9 7.6-1.9 22.4 0 30 3.5 13.5 11.7 26.7 23 37.4l6.8 6.3-3.2 14.2c-3.5 15.8-3.8 19.8-1.6 21.6 2.6 2.2 6.6.1 20.1-10.5l13.2-10.3 4.2 1.4c10.3 3.6 18.6 4.7 34 4.8 19 .1 28.4-2 43.9-9.5 9-4.4 11.7-6.3 19.1-13.8 9.3-9.3 14.4-17.9 17.1-29.1 1.9-7.6 1.6-22.1-.5-30-5.3-19.5-21.5-39-42.1-50.6-8.5-4.7-23.1-9.9-33.5-11.8-11.3-2.2-32-2-43 .4zm47.3 20.4c28.5 8.5 48.6 27.3 53.3 50 4.8 22.9-11.7 44.6-40.1 52.8-11.2 3.2-30.2 3.2-42.9 0-17.6-4.4-34.9-14.6-44.7-26.4-26-31.3-11-68.6 31.6-78.4 4.1-.9 10.5-1.2 20-1 11.5.3 15.6.8 22.8 3z"/><path d="M356.4 148.4c-6.9 3-9.8 10.6-7 18.1 2.3 5.8 6.5 8.5 13.6 8.5 4.8 0 5.6-.4 9.1-3.9s3.9-4.4 3.9-9c0-6.9-2.2-10.8-7.3-13.2-4.9-2.2-8.1-2.3-12.3-.5zM395.5 147.7c-6.1 1.6-9.5 6.7-9.5 14.4 0 4.6.4 5.5 3.9 9s4.3 3.9 9.1 3.9c7.1 0 11.3-2.7 13.6-8.5 4.3-11.4-5.1-21.8-17.1-18.8zM430.1 149.7c-4.7 2.3-7.1 6.7-7.1 13.1 0 4.5.4 5.7 3.4 8.9 3 3.3 3.9 3.7 9.3 4.1 5.6.4 6.2.2 9.6-2.7 2-1.8 4.1-4.8 4.7-6.7 3.9-11.9-8.5-22.3-19.9-16.7zM281.9 160.2c-6.6 6.6-12.6 23.3-18 50.3-1.7 8.2-3.2 15.1-3.3 15.2-.1.2-4-2.2-8.6-5.2-16.5-10.9-32.4-15-53.9-14.2-19.4.7-35.7 5.6-53.3 16l-7.4 4.4-5.3-12.1c-10.3-23.5-21.4-41.1-28.5-45.5-10.3-6.4-16.3.4-20.2 23.2-2.1 12.5-3 57.6-1.5 76.1.7 7.6 1 14.1.7 14.3-.5.6-26.1-1-56.4-3.4-21.2-1.7-21.3-1.7-23.3.4C-2 284.6.1 296 6.3 297.9c1.8.5 9.3 1.5 16.7 2.1 18.9 1.5 55.8 4 60.1 4 3.5 0 3.6.1 5.2 6 1 3.3 1.7 6.5 1.7 7.2 0 1.4-21.1 5.6-60 12-17.2 2.8-19.7 3.5-22.4 5.9-2.6 2.3-3 3.3-3 8.2-.1 6.3 2.1 9.7 6.1 9.7 3.1 0 45.3-7.1 69.2-11.6 10.1-1.9 18.5-3.3 18.6-3.2.1.2 1.8 2.9 3.8 6l3.7 5.8-13.8 6.9c-15.2 7.6-32.5 15.3-46.5 20.6-10.9 4.2-12.7 6-12.7 12.5 0 3.8.6 5.5 2.6 7.9C37 399.6 39 401 40 401c4.9 0 38.3-14.1 63.3-26.7l16.7-8.4 3.9 3.3c9.8 8.4 25 15.2 42.2 19 9.1 1.9 13.3 2.2 32.9 2.2 23.6 0 43.7-2.1 60.8-6.5 9.9-2.5 21.4-8.7 29.2-15.7l6.4-5.8 16.6 7.7c19 8.8 30.4 13.2 47.5 18.4 14.9 4.5 19 4.4 22.2-.4 2.8-4.1 3-10 .6-13-1.3-1.5-6-3.4-15.5-6.1-15.2-4.4-32.5-11-49.5-19l-11.1-5.2 2.9-7.1c1.6-3.9 3.1-7.2 3.3-7.4.2-.3 4.8.1 10.2.6 14.7 1.6 60.1 5.1 66.1 5.1 6.2 0 8.3-2.1 8.3-8.7 0-5.5-1.4-8.9-4.2-10.4-1.2-.6-10.1-1.8-19.8-2.5-23.1-1.8-55.5-4.5-55.7-4.8-.5-.5 1.7-13.9 2.4-14.6.4-.4 17.7-6.2 38.3-12.9 41.5-13.5 42-13.8 42-21.4 0-6-3.1-10.7-7.1-10.7-1.7 0-18.3 4.9-36.8 11-18.6 6.1-34.2 11-34.8 11-1.4 0-2.3-4.8-2.3-12.4 0-3.4-.7-11.7-1.5-18.5-4.2-33.5-13.9-68.1-22.6-80.1-3.9-5.3-8.2-5.6-13-.8z"/></svg>