<?xml version="1.0" standalone="no"?>
<!DOCTYPE svg PUBLIC "-//W3C//DTD SVG 20010904//EN"
 "http://www.w3.org/TR/2001/REC-SVG-20010904/DTD/svg10.dtd">
<svg version="1.0" xmlns="http://www.w3.org/2000/svg"
 width="490.000000pt" height="490.000000pt" viewBox="0 0 490.000000 490.000000"
 preserveAspectRatio="xMidYMid meet">
<metadata>
Created by potrace 1.11, written by Peter Selinger 2001-2013
</metadata>
<g transform="translate(0.000000,490.000000) scale(0.100000,-0.100000)"
fill="#000000" stroke="none">
<path d="M3690 4000 c-289 -61 -512 -253 -575 -495 -19 -76 -19 -224 0 -300
35 -135 117 -267 230 -374 l68 -63 -32 -142 c-35 -158 -38 -198 -16 -216 26
-22 66 -1 201 105 l132 103 42 -14 c103 -36 186 -47 340 -48 190 -1 284 20
439 95 90 44 117 63 191 138 93 93 144 179 171 291 19 76 16 221 -5 300 -53
195 -215 390 -421 506 -85 47 -231 99 -335 118 -113 22 -320 20 -430 -4z m473
-204 c285 -85 486 -273 533 -500 48 -229 -117 -446 -401 -528 -112 -32 -302
-32 -429 0 -176 44 -349 146 -447 264 -260 313 -110 686 316 784 41 9 105 12
200 10 115 -3 156 -8 228 -30z"/>
<path d="M3564 3416 c-69 -30 -98 -106 -70 -181 23 -58 65 -85 136 -85 48 0
56 4 91 39 35 35 39 44 39 90 0 69 -22 108 -73 132 -49 22 -81 23 -123 5z"/>
<path d="M3955 3423 c-61 -16 -95 -67 -95 -144 0 -46 4 -55 39 -90 35 -35 43
-39 91 -39 71 0 113 27 136 85 43 114 -51 218 -171 188z"/>
<path d="M4301 3403 c-47 -23 -71 -67 -71 -131 0 -45 4 -57 34 -89 30 -33 39
-37 93 -41 56 -4 62 -2 96 27 20 18 41 48 47 67 39 119 -85 223 -199 167z"/>
<path d="M2819 3298 c-66 -66 -126 -233 -180 -503 -17 -82 -32 -151 -33 -152
-1 -2 -40 22 -86 52 -165 109 -324 150 -539 142 -194 -7 -357 -56 -533 -160
l-74 -44 -53 121 c-103 235 -214 411 -285 455 -103 64 -163 -4 -202 -232 -21
-125 -30 -576 -15 -761 7 -76 10 -141 7 -143 -5 -6 -261 10 -564 34 -212 17
-213 17 -233 -4 -49 -49 -28 -163 34 -182 18 -5 93 -15 167 -21 189 -15 558
-40 601 -40 35 0 36 -1 52 -60 10 -33 17 -65 17 -72 0 -14 -211 -56 -600 -120
-172 -28 -197 -35 -224 -59 -26 -23 -30 -33 -30 -82 -1 -63 21 -97 61 -97 31
0 453 71 692 116 101 19 185 33 186 32 1 -2 18 -29 38 -60 l37 -58 -138 -69
c-152 -76 -325 -153 -465 -206 -109 -42 -127 -60 -127 -125 0 -38 6 -55 26
-79 14 -17 34 -31 44 -31 49 0 383 141 633 267 l167 84 39 -33 c98 -84 250
-152 422 -190 91 -19 133 -22 329 -22 236 0 437 21 608 65 99 25 214 87 292
157 l64 58 166 -77 c190 -88 304 -132 475 -184 149 -45 190 -44 222 4 28 41
30 100 6 130 -13 15 -60 34 -155 61 -152 44 -325 110 -495 190 l-111 52 29 71
c16 39 31 72 33 74 2 3 48 -1 102 -6 147 -16 601 -51 661 -51 62 0 83 21 83
87 0 55 -14 89 -42 104 -12 6 -101 18 -198 25 -231 18 -555 45 -557 48 -5 5
17 139 24 146 4 4 177 62 383 129 415 135 420 138 420 214 0 60 -31 107 -71
107 -17 0 -183 -49 -368 -110 -186 -61 -342 -110 -348 -110 -14 0 -23 48 -23
124 0 34 -7 117 -15 185 -42 335 -139 681 -226 801 -39 53 -82 56 -130 8z"/>
</g>
</svg>
